<svg width="60" height="60" viewBox="0 0 60 60" fill="none" xmlns="http://www.w3.org/2000/svg">
<circle cx="29.9998" cy="30" r="26.2522" stroke="#8890E0" stroke-opacity="0.3" stroke-width="0.5" stroke-dasharray="4 4"/>
<circle cx="30" cy="30" r="29.85" stroke="#8890E0" stroke-opacity="0.1" stroke-width="0.3" stroke-dasharray="4 4"/>
<circle cx="29.9999" cy="30" r="19.1067" stroke="#A3AAFF" stroke-width="0.8"/>
<path d="M18.75 32.85C18.9489 32.85 19.1397 32.929 19.2803 33.0696C19.421 33.2103 19.5 33.4011 19.5 33.6V37.35C19.5 37.7478 19.658 38.1293 19.9393 38.4106C20.2206 38.6919 20.6022 38.85 21 38.85H39C39.3978 38.85 39.7794 38.6919 40.0607 38.4106C40.342 38.1293 40.5 37.7478 40.5 37.35V33.6C40.5 33.4011 40.579 33.2103 40.7197 33.0696C40.8603 32.929 41.0511 32.85 41.25 32.85C41.4489 32.85 41.6397 32.929 41.7803 33.0696C41.921 33.2103 42 33.4011 42 33.6V37.35C42 38.1456 41.6839 38.9087 41.1213 39.4713C40.5587 40.0339 39.7956 40.35 39 40.35H21C20.2044 40.35 19.4413 40.0339 18.8787 39.4713C18.3161 38.9087 18 38.1456 18 37.35V33.6C18 33.4011 18.079 33.2103 18.2197 33.0696C18.3603 32.929 18.5511 32.85 18.75 32.85Z" fill="#A3AAFF"/>
<path d="M29.469 35.781C29.5386 35.8508 29.6214 35.9063 29.7125 35.9441C29.8036 35.9819 29.9013 36.0013 30 36.0013C30.0986 36.0013 30.1963 35.9819 30.2874 35.9441C30.3785 35.9063 30.4613 35.8508 30.531 35.781L35.031 31.281C35.1718 31.1402 35.2509 30.9492 35.2509 30.75C35.2509 30.5508 35.1718 30.3598 35.031 30.219C34.8901 30.0782 34.6991 29.9991 34.5 29.9991C34.3008 29.9991 34.1098 30.0782 33.969 30.219L30.75 33.4395V20.25C30.75 20.0511 30.671 19.8603 30.5303 19.7197C30.3896 19.579 30.1989 19.5 30 19.5C29.8011 19.5 29.6103 19.579 29.4696 19.7197C29.329 19.8603 29.25 20.0511 29.25 20.25V33.4395L26.031 30.219C25.8901 30.0782 25.6991 29.9991 25.5 29.9991C25.3008 29.9991 25.1098 30.0782 24.969 30.219C24.8281 30.3598 24.749 30.5508 24.749 30.75C24.749 30.9492 24.8281 31.1402 24.969 31.281L29.469 35.781Z" fill="#A3AAFF"/>
</svg>
