<svg width="100" height="100" viewBox="0 0 100 100" fill="none" xmlns="http://www.w3.org/2000/svg">
<rect width="100" height="100" fill="#0D0E1A"/>
<path d="M69.3337 52.4167C69.3337 64.5 60.8753 70.5417 50.822 74.0459C50.2956 74.2243 49.7237 74.2157 49.2028 74.0217C39.1253 70.5417 30.667 64.5 30.667 52.4167V35.5C30.667 34.8591 30.9216 34.2444 31.3748 33.7912C31.828 33.338 32.4427 33.0834 33.0837 33.0834C37.917 33.0834 43.9587 30.1834 48.1637 26.51C48.6756 26.0726 49.3269 25.8323 50.0003 25.8323C50.6737 25.8323 51.325 26.0726 51.837 26.51C56.0662 30.2075 62.0837 33.0834 66.917 33.0834C67.5579 33.0834 68.1726 33.338 68.6258 33.7912C69.079 34.2444 69.3337 34.8591 69.3337 35.5V52.4167Z" stroke="#8890E0" stroke-width="3" stroke-linecap="round" stroke-linejoin="round"/>
</svg>
