<svg width="100" height="100" viewBox="0 0 100 100" fill="none" xmlns="http://www.w3.org/2000/svg">
<rect width="100" height="100" fill="#0D0E1A"/>
<path d="M45.167 25.8333V44.0235C45.1677 44.7751 44.9931 45.5165 44.6571 46.1888L32.407 70.6624C32.2207 71.0321 32.1325 71.4435 32.1508 71.8571C32.1692 72.2707 32.2935 72.6727 32.5118 73.0244C32.7301 73.3762 33.0352 73.666 33.3977 73.866C33.7602 74.066 34.168 74.1695 34.582 74.1666H65.4186C65.8326 74.1695 66.2404 74.066 66.6029 73.866C66.9654 73.666 67.2705 73.3762 67.4888 73.0244C67.7072 72.6727 67.8315 72.2707 67.8498 71.8571C67.8682 71.4435 67.78 71.0321 67.5936 70.6624L55.3436 46.1888C55.0075 45.5165 54.8329 44.7751 54.8336 44.0235V25.8333M41.542 25.8333H58.4586M37.917 59.6666H62.0836" stroke="#8890E0" stroke-width="3" stroke-linecap="round" stroke-linejoin="round"/>
</svg>
